<svg xmlns="http://www.w3.org/2000/svg" width="500" height="413" viewBox="0 0 500 413" version="1.1"><path d="M 269.500 9.441 C 267.850 10.190, 208.591 68.785, 137.814 139.651 C -2.623 280.266, 6.920 269.914, 8.291 280.136 C 9.045 285.752, 12.479 290.247, 26.189 303.560 C 37.887 314.919, 43.835 318.939, 49 318.972 C 57.643 319.029, 52.096 324.234, 186.797 189.669 C 256.810 119.726, 314.935 61.150, 315.963 59.500 C 318.624 55.229, 319.348 50.011, 317.987 44.909 C 317.002 41.220, 314.419 38.074, 302.155 25.636 C 294.095 17.460, 286.052 10.148, 284.282 9.386 C 280.229 7.641, 273.408 7.666, 269.500 9.441 M 312.500 140.413 C 307.837 142.488, 281.313 168.878, 279.528 173.218 C 277.755 177.532, 277.550 183.659, 279.046 187.685 C 280.609 191.894, 438.512 349.739, 443.500 352.079 C 448.120 354.247, 450.921 354.422, 456.500 352.891 C 459.629 352.033, 463.514 348.821, 474.334 338.147 C 481.943 330.641, 489.030 322.830, 490.084 320.790 C 492.600 315.918, 492.593 308.060, 490.069 303.210 C 487.154 297.610, 331.414 142.457, 326.782 140.539 C 322.263 138.668, 316.535 138.618, 312.500 140.413 M 224.500 227.900 C 222.850 228.941, 193.293 258.077, 158.817 292.647 C 90.610 361.039, 93.949 357.124, 95.291 367.136 C 96.054 372.819, 99.558 377.356, 113.959 391.309 C 129.030 405.910, 132.577 407.599, 142.500 404.901 C 145.882 403.982, 152.838 397.500, 187.500 362.969 C 212.342 338.222, 229.495 321.883, 231.024 321.511 C 232.411 321.173, 234.590 321.283, 235.864 321.754 C 237.138 322.225, 254.003 338.422, 273.340 357.748 C 313.972 398.352, 314.980 399.077, 326.457 395.890 C 329.501 395.045, 333.495 391.763, 343.771 381.660 C 361.579 364.153, 363.835 360.223, 361.786 350.286 C 360.834 345.671, 358.728 343.425, 302.678 287.259 C 270.712 255.226, 243.126 228.339, 241.378 227.509 C 236.857 225.364, 228.202 225.565, 224.500 227.900" stroke="none" fill="#343c9c" fill-rule="evenodd"/></svg>